<?xml version="1.0" standalone="no"?>
<!DOCTYPE svg PUBLIC "-//W3C//DTD SVG 20010904//EN"
 "http://www.w3.org/TR/2001/REC-SVG-20010904/DTD/svg10.dtd">
<svg version="1.0" xmlns="http://www.w3.org/2000/svg"
 width="1280.000000pt" height="549.000000pt" viewBox="0 0 1280.000000 549.000000"
 preserveAspectRatio="xMidYMid meet">

<g transform="translate(0.000000,549.000000) scale(0.100000,-0.100000)"
fill="#000000" stroke="none">
<path d="M1190 5265 l0 -215 -240 0 -240 0 0 -500 0 -499 92 -3 92 -3 -447
-418 -447 -418 0 -695 0 -694 595 555 c327 305 597 555 600 555 3 0 5 -295 5
-655 l0 -655 505 0 505 0 0 305 c0 168 3 305 6 305 4 0 58 -48 120 -106 l114
-106 0 -204 0 -204 875 0 875 0 0 895 c0 888 0 895 20 895 20 0 20 -7 20 -890
l0 -891 873 4 c952 4 901 1 1092 64 246 81 446 225 566 408 l44 66 3 -270 2
-271 1040 0 1040 0 0 -473 0 -472 334 -334 334 -334 81 74 c44 41 771 720
1615 1509 l1535 1435 0 440 c0 242 -4 474 -9 514 -26 195 -177 355 -369 391
-33 6 -421 10 -1025 10 l-971 0 -219 -200 c-120 -110 -220 -200 -222 -200 -1
0 -10 26 -19 57 -9 32 -25 74 -36 94 -30 61 -123 153 -187 187 -117 63 -101
62 -1039 62 l-853 0 0 108 c0 199 -44 317 -155 420 -102 95 -199 132 -350 132
-108 0 -194 -19 -276 -60 -58 -30 -155 -114 -176 -154 -10 -17 -16 -13 -71 46
-36 38 -86 78 -120 96 -105 56 -148 62 -444 62 l-268 0 0 225 0 225 -515 0
-515 0 0 -225 0 -225 -480 0 -480 0 0 -35 c0 -19 -2 -35 -4 -35 -2 0 -32 13
-67 30 -35 16 -93 34 -129 39 -40 7 -333 11 -770 11 -388 0 -729 3 -757 6
l-53 7 0 213 0 214 -515 0 -515 0 0 -215z m940 -84 l0 -220 88 -6 c48 -3 431
-9 852 -13 l765 -7 57 -27 c74 -34 141 -97 173 -161 l25 -51 0 122 0 122 480
0 480 0 0 230 0 230 423 -2 422 -3 3 -227 2 -227 338 -3 337 -3 60 -29 c76
-38 144 -105 180 -181 54 -114 44 -297 -21 -398 -14 -22 -24 -40 -22 -40 2 -1
23 -9 48 -18 25 -9 53 -19 62 -23 16 -7 17 10 20 206 l3 214 32 65 c40 81 102
140 191 182 65 31 71 32 207 32 138 0 141 -1 206 -32 80 -39 150 -111 187
-191 26 -54 27 -65 30 -244 l3 -188 898 0 c987 0 966 1 1063 -61 129 -83 198
-245 170 -399 -6 -30 -9 -56 -8 -58 2 -1 130 115 285 258 l283 260 962 0
c1066 0 1031 2 1133 -65 60 -40 92 -79 130 -160 l28 -60 3 -471 3 -471 -1568
-1466 -1568 -1467 -292 293 -293 292 0 497 0 498 -1042 2 -1043 3 0 395 0 395
1330 3 c1217 3 1335 1 1393 -14 102 -27 186 -100 236 -204 20 -42 21 -64 26
-383 l5 -339 175 164 c97 90 537 500 978 911 l802 748 0 44 0 45 -532 0 -533
-1 -529 -484 c-291 -267 -533 -482 -537 -479 -5 3 -9 59 -9 125 l0 119 -36
-39 c-19 -22 -56 -53 -82 -70 -99 -63 -45 -61 -1369 -61 l-1203 0 0 400 0 400
1238 -2 1237 -3 67 -33 c43 -21 83 -51 112 -83 l46 -51 0 166 0 166 -22 -14
c-13 -8 -47 -21 -77 -30 -49 -14 -200 -16 -1383 -16 l-1328 0 0 23 0 24 -67
-23 c-57 -20 -89 -24 -200 -24 l-132 0 56 -52 c122 -115 220 -281 265 -448 20
-74 23 -109 23 -275 0 -207 -11 -274 -65 -405 -52 -125 -112 -211 -213 -309
-130 -125 -272 -200 -492 -259 l-100 -26 -832 -4 -833 -3 0 891 0 890 -105 0
-105 0 -2 -892 -3 -893 -785 0 -785 0 -5 181 -5 181 -195 184 -195 184 -3
-362 -2 -363 -420 0 -420 0 -2 716 -3 715 -589 -550 c-324 -303 -593 -551
-597 -551 -5 0 -9 255 -9 568 l0 567 512 480 512 480 -157 3 -157 3 0 409 0
410 240 0 240 0 0 220 0 220 425 0 425 0 0 -219z m4761 -1781 l39 0 0 -227 c0
-124 -3 -223 -7 -220 -4 4 -14 38 -24 76 -25 100 -74 211 -129 296 -47 70 -48
74 -27 79 12 2 42 2 66 0 24 -2 61 -4 82 -4z m4829 -6 c0 -8 17 8 -949 -892
-426 -397 -778 -722 -782 -722 -4 0 -9 107 -11 238 -4 274 -10 301 -97 409
l-49 60 497 456 496 456 448 0 c246 1 447 -2 447 -5z"/>
<path d="M1470 5068 c1 -177 29 -229 143 -263 137 -41 279 8 316 108 6 16 11
84 11 153 l0 124 -235 0 -235 0 0 -122z"/>
<path d="M5240 5058 c0 -148 8 -173 72 -221 96 -74 295 -55 360 34 28 37 37
91 38 212 l0 107 -235 0 -235 0 0 -132z"/>
<path d="M997 4753 c-4 -3 -7 -102 -7 -220 l0 -213 307 -2 307 -3 -662 -620
-662 -620 0 -312 c0 -172 2 -313 5 -313 12 0 2044 1905 2078 1947 20 26 44 72
53 101 14 47 14 57 0 106 -21 72 -82 129 -155 145 -57 12 -1252 16 -1264 4z"/>
<path d="M7269 4739 c-82 -13 -149 -64 -167 -127 -4 -15 -7 -234 -7 -487 l0
-460 1214 -3 c862 -1 1225 1 1255 9 56 15 120 81 136 139 33 124 -25 238 -139
270 -23 6 -390 10 -1013 10 l-978 0 0 233 c0 246 -6 291 -46 343 -44 60 -151
90 -255 73z"/>
<path d="M2490 4525 l0 -215 475 0 475 0 0 -1215 0 -1215 240 0 240 0 0 1348
c0 880 -4 1360 -10 1384 -13 45 -75 103 -127 117 -25 7 -254 11 -665 11 l-628
0 0 -215z"/>
<path d="M4285 4727 c-3 -7 -4 -102 -3 -212 l3 -200 238 -3 237 -2 0 -115 0
-115 -355 0 -355 0 0 -210 0 -210 1343 0 1343 0 52 26 c75 37 107 94 107 189
0 88 -31 148 -97 185 -43 25 -45 25 -330 28 l-288 3 0 108 0 109 169 4 c166 3
169 4 216 33 72 45 97 98 93 197 -3 68 -6 80 -34 115 -17 21 -46 47 -65 58
-33 20 -55 20 -1152 23 -909 2 -1118 0 -1122 -11z m1425 -532 l0 -115 -237 2
-238 3 -3 113 -3 112 241 0 240 0 0 -115z"/>
<path d="M2383 3984 c-273 -254 -304 -290 -318 -367 -16 -84 39 -198 114 -237
50 -25 132 -26 183 -2 21 9 96 70 168 135 l130 118 0 304 c0 168 -1 305 -2
305 -2 0 -126 -115 -275 -256z"/>
<path d="M2851 4185 c-54 -17 -108 -68 -121 -115 -6 -22 -10 -436 -10 -1112
l0 -1078 240 0 240 0 0 1083 c0 711 -4 1095 -10 1119 -13 46 -67 92 -126 107
-58 15 -159 13 -213 -4z"/>
<path d="M10222 3793 l-312 -286 0 -294 c0 -161 2 -293 5 -293 3 0 184 164
403 364 l397 365 663 0 662 1 0 -185 0 -185 -1391 -1291 -1391 -1292 158 -158
157 -158 63 57 c35 31 698 649 1473 1372 l1410 1315 1 404 c0 384 -1 407 -20
446 -23 48 -61 79 -116 94 -27 7 -323 11 -945 11 l-905 0 -312 -287z"/>
<path d="M1637 3596 c-58 -21 -103 -61 -131 -118 l-26 -52 0 -773 0 -773 230
0 230 0 2 490 3 489 215 -201 c118 -110 225 -210 238 -221 l22 -20 -1 309 0
309 -117 110 c-65 61 -195 183 -290 272 -149 141 -179 164 -224 178 -62 18
-101 18 -151 1z"/>
<path d="M4520 2705 l0 -815 695 0 c670 0 699 1 793 21 190 41 326 111 443
228 145 146 209 317 209 561 0 233 -61 406 -194 548 -105 112 -243 190 -425
240 l-96 27 -712 3 -713 3 0 -816z m1462 342 c74 -36 150 -119 179 -195 28
-75 32 -223 6 -297 -35 -101 -136 -197 -237 -225 -20 -6 -222 -10 -482 -10
l-448 0 0 90 0 90 399 0 c258 0 410 4 428 11 135 51 167 275 52 362 -59 44
-91 47 -496 47 l-383 0 0 80 0 81 463 -3 462 -3 57 -28z"/>
<path d="M7210 2980 l0 -210 1112 0 1112 0 44 21 c58 28 94 85 102 158 12 107
-25 186 -104 222 -39 18 -89 19 -1153 19 l-1113 0 0 -210z"/>
<path d="M7097 2303 c-4 -3 -7 -98 -7 -210 l0 -203 1070 0 1070 0 2 -517 3
-518 237 225 238 225 0 420 c0 249 -4 435 -10 456 -14 50 -72 105 -125 118
-48 12 -2466 16 -2478 4z"/>
<path d="M2885 1248 c-67 -23 -105 -89 -85 -144 17 -44 39 -64 114 -100 38
-19 78 -42 88 -51 44 -40 4 -93 -70 -93 -28 0 -64 8 -87 20 -22 11 -43 20 -47
20 -12 0 -10 -68 2 -75 26 -16 131 -25 177 -15 102 23 153 102 116 178 -15 30
-34 45 -106 82 -112 58 -127 80 -87 120 24 24 92 27 130 5 39 -22 50 -18 50
19 0 30 -4 34 -31 40 -46 9 -130 6 -164 -6z"/>
<path d="M6360 1154 c-52 -59 -94 -109 -92 -113 1 -3 39 -57 83 -118 l81 -113
59 0 c32 0 59 2 59 4 0 3 -43 59 -96 127 l-96 122 92 92 c85 85 90 93 68 98
-52 14 -63 7 -158 -99z"/>
<path d="M1200 1030 l0 -220 45 0 45 0 0 105 0 105 110 0 110 0 0 -105 0 -105
50 0 50 0 0 220 0 220 -50 0 -50 0 0 -90 0 -91 -107 3 -108 3 -3 88 -3 87 -44
0 -45 0 0 -220z"/>
<path d="M1846 1044 c-53 -113 -100 -212 -103 -220 -4 -11 5 -14 35 -14 40 0
40 0 65 63 l25 62 89 3 88 3 25 -66 24 -65 52 0 52 0 -55 133 c-30 72 -70 171
-90 220 l-35 87 -37 0 -37 0 -98 -206z m148 32 c14 -37 26 -72 26 -77 0 -5
-30 -9 -66 -9 -36 0 -64 4 -62 8 2 5 16 43 33 85 16 42 33 73 36 69 4 -4 19
-38 33 -76z"/>
<path d="M2260 1225 c0 -25 1 -25 85 -25 l85 0 0 -195 0 -195 50 0 50 0 0 195
0 195 90 0 c89 0 90 0 90 25 l0 25 -225 0 -225 0 0 -25z"/>
<path d="M3252 1072 c2 -149 6 -182 21 -205 68 -104 315 -79 362 37 7 18 15
99 18 189 l6 157 -34 0 -35 0 0 -150 c0 -162 -6 -187 -50 -213 -40 -24 -128
-22 -160 3 -25 19 -25 21 -28 189 l-3 171 -50 0 -51 0 4 -178z"/>
<path d="M3830 1030 l0 -220 36 0 37 0 -5 155 c-3 86 -1 154 3 153 5 -2 72
-73 150 -158 78 -85 146 -155 150 -154 5 1 18 2 29 3 19 1 20 8 20 221 l0 220
-30 0 -29 0 -3 -152 -3 -152 -139 152 c-133 146 -141 152 -177 152 l-39 0 0
-220z"/>
<path d="M4440 1030 l0 -220 165 0 165 0 0 30 0 30 -120 0 -121 0 3 73 3 72
103 3 c101 3 102 3 102 27 0 24 -1 24 -102 27 l-103 3 -3 63 -3 62 116 0 115
0 0 25 0 25 -160 0 -160 0 0 -220z"/>
<path d="M5186 1208 c-5 -42 -26 -346 -26 -380 0 -14 8 -18 35 -18 l35 0 1
163 1 162 79 -161 c71 -143 83 -161 102 -157 17 3 41 41 102 156 l80 152 6
-145 c4 -80 7 -151 8 -157 1 -8 17 -13 46 -13 l45 0 -6 158 c-2 86 -7 185 -10
220 l-6 62 -43 0 -44 0 -78 -155 c-43 -85 -81 -155 -84 -155 -3 0 -38 70 -79
155 l-73 155 -43 0 -43 0 -5 -42z"/>
<path d="M5880 1030 l0 -220 45 0 45 0 0 220 0 220 -45 0 -45 0 0 -220z"/>
<path d="M6160 1030 l0 -220 45 0 45 0 0 220 0 220 -45 0 -45 0 0 -220z"/>
<path d="M6682 1066 c3 -167 5 -186 23 -206 65 -73 216 -79 304 -13 53 41 61
73 61 248 l0 155 -35 0 -35 0 0 -156 c0 -87 -4 -164 -10 -175 -28 -52 -147
-67 -197 -25 l-28 24 -3 166 -4 166 -39 0 -40 0 3 -184z"/>
</g>
</svg>
